<?xml version="1.0" encoding="utf-8"?>
<!-- Generator: Adobe Illustrator 15.1.0, SVG Export Plug-In . SVG Version: 6.00 Build 0)  -->
<!DOCTYPE svg PUBLIC "-//W3C//DTD SVG 1.1//EN" "http://www.w3.org/Graphics/SVG/1.1/DTD/svg11.dtd">
<svg version="1.1" id="Calque_1" xmlns="http://www.w3.org/2000/svg" xmlns:xlink="http://www.w3.org/1999/xlink" x="0px" y="0px"
	 width="595.279px" height="841.89px" viewBox="0 0 595.279 841.89" enable-background="new 0 0 595.279 841.89"
	 xml:space="preserve">
<g id="couleurs" display="none">
	<path display="inline" fill="#D7225D" d="M351.332,447.613l17.834-2.732l4.041,94.662c0,0-10.493-3.736-12.5,0
		C358.701,543.277,351.332,447.613,351.332,447.613"/>
	<path display="inline" fill="#A87B53" d="M151.333,553.339c0,0,30.208,158.16,30.395,185.244c0.188,27.082-21.02,7.291-21.02,7.291
		l-29.166-192.535"/>
	<path display="inline" fill="#C39A6F" d="M395.425,311.121c-53.523-15.569-50.505-57.059-50.505-57.059
		c-43.985,90.102-131.504,60.806-131.466,59.765c5.365,19.701-6.389,39.833-17.077,53.162
		c3.729,12.23,34.862,104.649,118.396,84.364c89.405-21.709,92.03-56.97,96.419-70.441c3.839-11.783,2.229-34.842,1.357-44.227
		C403.546,330.753,395.471,322.313,395.425,311.121z"/>
	<path display="inline" fill="#C39A6F" d="M155.5,526.216c0,0-6.25-23.131-23.958-12.195c0,0-18.75,8.371-13.542,29.967
		c0,0,6.231,17.43,28.116,9.096C146.116,553.083,169.042,551.433,155.5,526.216z"/>
	<path display="inline" fill="none" d="M236.623,391.996l146.394-12.482c0,0-9.146,47.349-70.845,55.362
		C312.196,434.226,245.139,443.562,236.623,391.996z"/>
	<path display="inline" fill="#FFFFFF" stroke="#FFFFFF" stroke-width="5" stroke-miterlimit="10" d="M236.623,391.996
		l146.394-12.482c0,0-9.146,47.349-70.845,55.362C312.196,434.226,245.139,443.562,236.623,391.996z"/>
	<circle display="inline" cx="240.106" cy="357.551" r="10.417"/>
	<circle display="inline" cx="378.012" cy="349.142" r="8.334"/>
	<polyline display="inline" fill="#3B2416" points="136.605,259.263 204.762,201.613 201.245,173.649 195.085,124.671 
		329.665,94.441 356.433,160.698 485.717,180.556 139.806,270.677 	"/>
	<line display="inline" fill="none" x1="344.909" y1="135.375" x2="201.379" y2="171.943"/>
	<line display="inline" fill="none" x1="356.75" y1="161.417" x2="204.458" y2="199.958"/>
	<polygon display="inline" fill="#5F3817" points="356.75,161.417 204.458,199.958 201.379,171.943 344.909,135.375 	"/>
	<polygon display="inline" fill="#939598" points="98,400.242 132.287,393.846 125.529,361.824 93.499,366.713 	"/>
	<path display="inline" fill="#939598" d="M125.529,361.824c0,0,24.931-16.964,30.25-26.224l-26.915-112.08l-6.123-0.135
		l18.204,102.221c0,0-9.543,13.088-25.091,15.096L83.956,233.988l-7.313,0.88L98.2,343.747c0,0-13.734,8.589-24.073,4.935
		l-32.195-98.953l-7.404,4.983l17.405,108.173c0,0,18.643,6.81,41.567,3.828"/>
	<path display="inline" fill="#D7225D" d="M287.792,543.988c0,0,65.623-2.619,72.915-10.346"/>
	<polyline display="inline" fill="#D7225D" points="373.207,530.667 385.834,526.216 424.25,614.542 237.792,637.458 
		256.542,545.792 272.167,545.792 	"/>
	<circle display="inline" fill="#FAAF4C" cx="367.166" cy="549.333" r="10.417"/>
	<circle display="inline" fill="#FAAF4C" cx="281.584" cy="563.586" r="10.417"/>
	<path display="inline" fill="none" stroke="#000000" stroke-width="5" stroke-miterlimit="10" d="M297.639,455.835
		c0,0-9.402,35.635,24.007,32.664c0,0,40.749-11.463,14.385-38.543"/>
	<path display="inline" fill="#C39A6F" stroke="#000000" stroke-width="5" stroke-miterlimit="10" d="M411.153,583.304
		c0,0,9.522,10.418,15.772-18.75c0,0-6.124-30.207-32.229-20.832"/>
	<polygon display="inline" fill="#34B475" points="256.542,684.333 304.879,684.333 287.792,758.292 216.958,758.292 
		250.523,732.25 	"/>
	<path display="inline" fill="#34B475" d="M351.332,689.542c0,0,42.709-17.709,57.293-16.668l-5.209,59.375l33.334,26.043h-63.543
		L351.332,689.542z"/>
	<path display="inline" fill="#D7225D" d="M272.167,559.333L268,460.375l19.792-3.031v95.74
		C287.792,553.083,272.781,552.304,272.167,559.333"/>
	<line display="inline" fill="none" x1="396.125" y1="672.875" x2="360.707" y2="685.837"/>
	<path display="inline" fill="#C39A6F" d="M360.707,685.837l-25-59.963c0,0,51.138-6.736,55.326-7.25l5.092,54.25L360.707,685.837"
		/>
	
		<line display="inline" fill="none" stroke="#000000" stroke-width="5" stroke-miterlimit="10" x1="268" y1="633.746" x2="319.098" y2="627.464"/>
	<polyline display="inline" fill="#C39A6F" points="297.639,684.333 315.764,627.875 297.64,684.333 260.708,684.333 268,633.746 
		319.098,627.464 	"/>
	<path display="inline" fill="none" stroke="#000000" stroke-width="5" stroke-miterlimit="10" d="M369.166,444.88l4.041,94.662
		c0,0-6.792-1.959-12.5,0l-9.375-91.93"/>
	<path display="inline" fill="none" stroke="#000000" stroke-width="5" stroke-miterlimit="10" d="M181.728,382.493
		c0,0,40.903-34.97,31.727-68.666c-0.039,1.041,87.479,30.337,131.466-59.765c0,0-4.238,58.216,86.285,62.607"/>
	<path display="inline" fill="none" stroke="#000000" stroke-width="5" stroke-miterlimit="10" d="M185.718,256.624l-4.998,135.121
		c0,0-25.107-12.72-33.038-8.79c0,0-20.478,42.527,24.665,54.751c0,0-22.756,48.773,18.967,60.875"/>
	<path display="inline" fill="none" stroke="#000000" stroke-width="5" stroke-miterlimit="10" d="M408.812,199.958l37.815,203.475
		l25.627-18.667c0,0,5.237,42.3-21.478,59.665c0,0,42.434,47.996-12.74,68.627"/>
	<polyline display="inline" fill="none" stroke="#000000" stroke-width="5" stroke-miterlimit="10" points="136.605,259.263 
		204.762,201.613 201.245,173.649 195.085,124.671 329.665,94.441 356.433,160.698 485.717,180.556 139.806,270.677 	"/>
</g>
<g id="traces">
	<polygon fill="none" points="141.585,510.804 127.097,396.242 106.417,400.242 127.25,514.021 	"/>
	<polyline fill="none" stroke="#000000" stroke-width="5" stroke-miterlimit="10" points="373.207,530.667 385.834,526.216 
		424.25,614.542 237.792,637.458 256.542,545.792 272.167,545.792 	"/>
	<path fill="none" stroke="#000000" stroke-width="5" stroke-miterlimit="10" d="M195.985,365.655
		c0,0,29.384,107.411,118.789,85.698c89.405-21.709,92.03-56.97,96.419-70.441c4.893-15.016,1.357-44.227,1.357-44.227"/>
	<path fill="none" stroke="#000000" stroke-width="5" stroke-miterlimit="10" d="M236.623,391.996l146.394-12.482
		c0,0-9.146,47.349-70.845,55.362C312.196,434.226,245.139,443.562,236.623,391.996z"/>
	<path fill="none" stroke="#000000" stroke-width="5" stroke-miterlimit="10" d="M323.207,323.917"/>
	<circle fill="none" stroke="#000000" stroke-width="5" stroke-miterlimit="10" cx="240.106" cy="357.551" r="10.417"/>
	<circle fill="none" stroke="#000000" stroke-width="5" stroke-miterlimit="10" cx="378.012" cy="349.142" r="8.334"/>
	<path fill="none" stroke="#000000" stroke-width="5" stroke-miterlimit="10" d="M181.728,382.493c0,0,40.903-34.97,31.727-68.666
		c-0.039,1.041,87.479,30.337,131.466-59.765c0,0-4.238,58.216,86.285,62.607"/>
	<path fill="none" stroke="#000000" stroke-width="5" stroke-miterlimit="10" d="M395.467,309.503
		c-1.7,26.462,41.283,38.164,41.283,38.164"/>
	<path fill="none" stroke="#000000" stroke-width="5" stroke-miterlimit="10" d="M185.718,256.624l-4.998,135.121
		c0,0-25.107-12.72-33.038-8.79c0,0-20.478,42.527,24.665,54.751c0,0-22.756,48.773,18.967,60.875"/>
	<path fill="none" stroke="#000000" stroke-width="5" stroke-miterlimit="10" d="M408.812,199.958l37.815,203.475l25.627-18.667
		c0,0,5.237,42.3-21.478,59.665c0,0,42.434,47.996-12.74,68.627"/>
	<path fill="none" stroke="#000000" stroke-width="5" stroke-miterlimit="10" d="M386.294,522.21c0,0,15.95-3.555,17.088-6.895"/>
	<path fill="none" stroke="#000000" stroke-width="5" stroke-miterlimit="10" d="M223.167,522.792c0,0,20.833,15.625,34.375,9.375"
		/>
	<path fill="none" stroke="#000000" stroke-width="5" stroke-miterlimit="10" d="M152.156,518.763L268,460.375l115.625-17.707
		c0,0,59.067,55.207,57.658,64.582l-25.199,38.543"/>
	<polygon fill="none" stroke="#000000" stroke-width="5" stroke-miterlimit="10" points="396.979,539.552 408.813,494.875 
		383.876,488.378 385.715,526.115 	"/>
	<path fill="none" stroke="#000000" stroke-width="5" stroke-miterlimit="10" d="M411.153,583.304c0,0,9.522,10.418,15.772-18.75
		c0,0-6.124-30.207-32.229-20.832"/>
	<path fill="none" stroke="#000000" stroke-width="5" stroke-miterlimit="10" d="M287.792,543.988c0,0,65.623-2.619,72.915-10.346"
		/>
	<path fill="none" stroke="#000000" stroke-width="5" stroke-miterlimit="10" d="M272.167,559.333L268,462l19.792-4.656v95.74
		C287.792,553.083,272.781,552.304,272.167,559.333"/>
	<path fill="none" stroke="#000000" stroke-width="5" stroke-miterlimit="10" d="M369.166,444.88l4.041,94.662L369.166,444.88z"/>
	<circle fill="none" stroke="#000000" stroke-width="5" stroke-miterlimit="10" cx="367.166" cy="549.333" r="10.417"/>
	<circle fill="none" stroke="#000000" stroke-width="5" stroke-miterlimit="10" cx="281.584" cy="563.586" r="10.417"/>
	<polyline fill="none" stroke="#000000" stroke-width="5" stroke-miterlimit="10" points="260.708,543.988 256.542,514.021 
		160.708,539.542 	"/>
	<path fill="none" stroke="#000000" stroke-width="5" stroke-miterlimit="10" d="M155.5,526.216c0,0-6.25-23.131-23.958-12.195
		c0,0-18.75,8.371-13.542,29.967c0,0,6.231,17.43,28.116,9.096C146.116,553.083,169.042,551.433,155.5,526.216z"/>
	<polyline fill="none" stroke="#000000" stroke-width="5" stroke-miterlimit="10" points="297.64,684.33 260.708,684.333 
		268,633.746 260.708,684.333 	"/>
	<polyline fill="none" stroke="#000000" stroke-width="5" stroke-miterlimit="10" points="297.639,684.333 315.764,627.875 
		297.64,684.333 260.708,684.333 268,633.746 319.098,627.464 	"/>
	<path fill="none" stroke="#000000" stroke-width="5" stroke-miterlimit="10" d="M360.707,685.837l-25-59.963
		c0,0,51.138-6.736,55.326-7.25l5.092,54.25L360.707,685.837"/>
	<polygon fill="none" stroke="#000000" stroke-width="5" stroke-miterlimit="10" points="256.542,684.333 304.879,684.333 
		287.792,758.292 216.958,758.292 250.523,732.25 	"/>
	<path fill="none" stroke="#000000" stroke-width="5" stroke-miterlimit="10" d="M351.332,689.542c0,0,42.709-17.709,57.293-16.668
		l-5.209,59.375l33.334,26.043h-63.543L351.332,689.542z"/>
	<path fill="none" stroke="#000000" stroke-width="5" stroke-miterlimit="10" d="M151.333,553.339c0,0,30.208,158.16,30.395,185.244
		c0.188,27.082-21.02,7.291-21.02,7.291l-29.166-192.535"/>
	<line fill="none" stroke="#000000" stroke-width="5" stroke-miterlimit="10" x1="127.25" y1="518.021" x2="106.417" y2="400.242"/>
	<polygon fill="none" stroke="#000000" stroke-width="5" stroke-miterlimit="10" points="141.585,510.804 127.097,396.242 
		106.417,400.242 127.25,514.021 	"/>
	<polygon fill="none" stroke="#000000" stroke-width="5" stroke-miterlimit="10" points="98,400.242 132.287,393.846 
		125.529,361.824 93.499,366.713 	"/>
	<path fill="none" stroke="#000000" stroke-width="5" stroke-miterlimit="10" d="M125.529,361.824c0,0,24.931-16.964,30.25-26.224
		l-26.915-112.08l-6.123-0.135l18.204,102.221c0,0-9.543,13.088-25.091,15.096L83.956,233.988l-7.313,0.88L98.2,343.747
		c0,0-13.734,8.589-24.073,4.935l-32.195-98.953l-7.404,4.983l17.405,108.173c0,0,18.643,6.81,41.567,3.828"/>
	<path fill="none" stroke="#000000" stroke-width="5" stroke-miterlimit="10" d="M297.639,455.835c0,0-9.402,35.635,24.007,32.664
		c0,0,40.749-11.463,14.385-38.543L297.639,455.835z"/>
	<polyline fill="none" stroke="#000000" stroke-width="5" stroke-miterlimit="10" points="136.605,259.263 204.762,201.613 
		201.245,173.649 195.085,124.671 329.665,94.441 356.433,160.698 485.717,180.556 139.806,270.677 	"/>
	<polygon fill="none" stroke="#000000" stroke-width="5" stroke-miterlimit="10" points="356.75,161.417 204.458,199.958 
		201.379,171.943 344.909,135.375 	"/>
	<path fill="none" stroke="#000000" stroke-width="5" stroke-miterlimit="10" d="M272.167,545.792"/>
</g>
</svg>
